<?xml version="1.0" standalone="no"?><!DOCTYPE svg PUBLIC "-//W3C//DTD SVG 1.1//EN" "http://www.w3.org/Graphics/SVG/1.1/DTD/svg11.dtd"><svg t="1779273732813" class="icon" viewBox="0 0 1024 1024" version="1.1" xmlns="http://www.w3.org/2000/svg" p-id="5629" xmlns:xlink="http://www.w3.org/1999/xlink" width="64" height="64"><path d="M0 0h1024v1024H0z" fill="#E91E8C" opacity=".01" p-id="5630"></path><path d="M170.666667 170.666667h682.666666v682.666666H170.666667z" fill="#E91E8C" opacity=".01" p-id="5631"></path><path d="M512 181.333333a32 32 0 0 1 32 32v53.930667l2.389333 0.298667a96.042667 96.042667 0 0 1 82.773334 88.533333l0.170666 6.570667a96 96 0 0 1-82.944 95.146666l-2.389333 0.213334v21.930666h56.96a32 32 0 0 1 30.208 42.709334 32 32 0 1 0 60.330667 0 32 32 0 0 1 30.208-42.709334L810.666667 480a32 32 0 0 1 32 32v213.333333A117.333333 117.333333 0 0 1 725.333333 842.666667H298.666667A117.333333 117.333333 0 0 1 181.333333 725.333333V298.666667A117.333333 117.333333 0 0 1 298.666667 181.333333h213.333333z m-149.333333 277.333334a32 32 0 0 0-30.165334 42.666666 32.042667 32.042667 0 0 1-30.208 42.709334L245.333333 544V725.333333c0 27.605333 20.992 50.346667 47.872 53.034667L298.666667 778.666667h181.333333v-21.973334l-2.389333-0.213333a95.445333 95.445333 0 0 1-47.872-21.034667 95.744 95.744 0 0 1-34.858667-67.541333L394.666667 661.333333a95.914667 95.914667 0 0 1 9.813333-42.325333 96.128 96.128 0 0 1 73.130667-52.778667l2.389333-0.298666v-21.930667l-56.96 0.042667a32.426667 32.426667 0 0 1-7.68-0.896l-1.450667-0.426667a31.445333 31.445333 0 0 1-2.346666-0.810667l-0.938667-0.426666a31.872 31.872 0 0 1-2.133333-0.981334c-0.512-0.256-0.981333-0.469333-1.450667-0.768a32.170667 32.170667 0 0 1-9.472-8.362666l-1.237333-1.706667-0.682667-1.066667-0.725333-1.237333-0.554667-1.066667-0.554667-1.28c-0.170667-0.426667-0.426667-0.853333-0.597333-1.365333a31.914667 31.914667 0 0 1-0.810667-2.218667l-0.426666-1.408-0.426667-2.133333a31.658667 31.658667 0 0 1 1.28-16.554667 32 32 0 0 0-30.165333-42.666666z m181.333333 85.290666l0.042667 57.045334a32.426667 32.426667 0 0 1-5.504 17.834666l-0.426667 0.682667a32.298667 32.298667 0 0 1-1.706667 2.133333c-0.298667 0.426667-0.64 0.725333-0.981333 1.109334a33.152 33.152 0 0 1-5.76 4.864l-0.981333 0.64a34.474667 34.474667 0 0 1-2.048 1.152l-1.194667 0.554666a29.44 29.44 0 0 1-2.133333 0.896l-0.768 0.298667a31.872 31.872 0 0 1-2.645334 0.810667l-0.810666 0.170666a31.701333 31.701333 0 0 1-17.749334-0.981333 31.872 31.872 0 0 0-40.149333 17.706667 31.957333 31.957333 0 0 0 23.04 43.776 32.213333 32.213333 0 0 0 17.109333-1.152 31.957333 31.957333 0 0 1 42.709334 30.208l-0.042667 56.96H725.333333a53.333333 53.333333 0 0 0 53.034667-47.872L778.666667 725.333333v-181.376h-21.973334l-0.213333 2.432a96 96 0 0 1-190.293333 0l-0.256-2.432h-21.930667zM298.666667 245.333333c-29.44 0-53.333333 23.893333-53.333334 53.333334v181.333333h21.930667l0.298667-2.389333a96.042667 96.042667 0 0 1 88.533333-82.773334L362.666667 394.666667a96 96 0 0 1 95.146666 82.944l0.213334 2.389333h21.973333V423.04c0-20.608 19.029333-35.456 38.485333-31.36l4.181334 1.194667a32 32 0 1 0 0-60.416 32 32 0 0 1-42.666667-30.165334V245.333333H298.666667z" fill="#E91E8C" p-id="5632"></path><path d="M480 213.333333a32 32 0 0 1 32-32h213.333333A117.333333 117.333333 0 0 1 842.666667 298.666667v213.333333a32 32 0 0 1-32 32h-53.973334l-0.256 2.389333a96 96 0 0 1-88.533333 82.773334l-6.570667 0.170666a96 96 0 0 1-95.146666-82.944l-0.298667-2.389333h-53.845333a32 32 0 0 1-31.744-27.648L480 512l-0.042667-88.96a32 32 0 0 1 42.666667-30.208 32 32 0 1 0 0-60.330667 32 32 0 0 1-42.666667-30.208V213.333333z m121.002667 266.624a32 32 0 0 1 31.317333 38.485334l-1.152 4.224a32 32 0 1 0 60.373333 0 32 32 0 0 1 30.165334-42.709334l56.96 0.085334V298.666667a53.333333 53.333333 0 0 0-47.872-53.034667L725.333333 245.333333h-181.376v21.973334l2.389334 0.256a96 96 0 0 1 0 190.208l-2.389334 0.298666v21.973334l57.045334-0.085334z" fill="#E91E8C" p-id="5633"></path></svg>